<?xml version="1.0" encoding="UTF-8"?>
<svg id="Layer_1" data-name="Layer 1" xmlns="http://www.w3.org/2000/svg" viewBox="0 0 120 120">
  <defs>
    <style>
      .cls-1 {
        fill: #f8b6b6;
      }

      .cls-1, .cls-2, .cls-3, .cls-4 {
        stroke-width: 0px;
      }

      .cls-2 {
        fill: #22336f;
      }

      .cls-3 {
        fill: #3974aa;
      }

      .cls-4 {
        fill: #fec46e;
      }
    </style>
  </defs>
  <g>
    <circle class="cls-3" cx="60" cy="60" r="48"/>
    <path class="cls-2" d="m60,14.5c25.09,0,45.5,20.41,45.5,45.5s-20.41,45.5-45.5,45.5S14.5,85.09,14.5,60,34.91,14.5,60,14.5m0-5c-27.89,0-50.5,22.61-50.5,50.5s22.61,50.5,50.5,50.5,50.5-22.61,50.5-50.5S87.89,9.5,60,9.5h0Z"/>
  </g>
  <g>
    <path class="cls-4" d="m23.99,94.2c-3.05.7-5.55.88-7.5.54-1.95-.34-3.07-1.16-3.36-2.45-2.55-11.11-3.5-19.67-2.84-25.69.66-6.02,2.55-9.39,5.69-10.11,1.32-.3,2.5.13,3.55,1.29-1.39,2.86-1.98,7.35-1.79,13.48.19,6.13.89,11.79,2.08,16.99.18.79.39,1.26.62,1.4.23.14.84.1,1.83-.12,4.54-1.04,8.18-3.16,10.95-6.36,2.76-3.2,3.82-6.19,3.18-8.97-.42-1.83-1.39-3.09-2.92-3.79-1.53-.7-3.1-.97-4.71-.82-1.62.15-3.11.2-4.49.14-1.38-.05-2.15-.43-2.31-1.14-.12-.54-.06-.99.21-1.36.26-.37.59-.63.99-.79.4-.16.92-.33,1.57-.52l2.07-.34.31-.07c3.26-.75,5.54-2.03,6.84-3.84,1.3-1.81,1.81-4.06,1.54-6.76l-.11-.5c-.49-2.12-1.71-3.68-3.68-4.67-1.97-.99-4.74-1.08-8.33-.25-3.59.82-6.49,1.97-8.72,3.45-2.22,1.47-4.23,3.42-6.02,5.85-.74.96-1.54,1.54-2.4,1.74-.87.2-1.66.06-2.37-.41-.72-.47-1.16-1.07-1.32-1.8-.17-.73-.07-1.35.29-1.87,4.57-6.39,10.97-10.53,19.22-12.43,5.65-1.3,10.29-1.14,13.92.48,3.63,1.62,5.8,4,6.52,7.14.72,3.14-.04,6.35-2.28,9.62-1.69,2.49-4.24,4.13-7.66,4.91,2.09-.35,4.29.03,6.61,1.14,2.32,1.11,3.73,2.77,4.24,4.97.97,4.24-.53,8.62-4.51,13.12-3.98,4.5-8.94,7.44-14.88,8.8Z"/>
    <path class="cls-1" d="m76.7,81.57c-1.9.44-3.43.3-4.58-.39-2.46-1.45-4.36-2.94-5.72-4.47-2.38,2.47-5.16,4.08-8.34,4.81-3.18.73-5.82.64-7.94-.28-2.12-.91-3.5-2.74-4.13-5.49-.31-1.33-.31-2.6-.03-3.8.51-2.48,2.67-5.39,6.47-8.71-2.61-3.03-4.18-5.73-4.72-8.08-.54-2.35-.1-4.62,1.33-6.81,1.43-2.19,3.32-3.55,5.67-4.09,2.35-.54,4.35-.37,6.01.52,1.66.89,2.74,2.43,3.24,4.61s.26,4.2-.73,6.05c-.99,1.85-2.46,3.72-4.41,5.61,2.67,3.11,5.46,5.99,8.37,8.65,2.61-2.83,3.81-5.17,3.6-7-.08-.55.25-.91.99-1.08s1.48-.09,2.21.25c.73.34,1.18.9,1.37,1.69.37,1.62.12,3.14-.75,4.54-.87,1.41-2.22,2.93-4.06,4.58,2.26,1.32,3.72,2.15,4.38,2.47.66.33,1.51.58,2.55.76,1.04.18,1.91.41,2.6.68.69.28,1.1.69,1.23,1.23.12.54-.24,1.22-1.1,2.03-.86.81-2.03,1.39-3.51,1.73Zm-24.8-7.9c.63,2.74,2.74,3.71,6.33,2.88,1.73-.4,3.27-1.36,4.61-2.9-2.71-2.18-5.56-4.94-8.54-8.28-2.24,2.71-3.04,5.47-2.39,8.3Zm2.22-20.08c.29,1.25,1.27,2.9,2.96,4.97.92-1.48,1.51-2.51,1.76-3.1.11-.29.32-.85.65-1.69.33-.84.35-1.89.06-3.13-.31-1.33-1.35-1.79-3.12-1.38-2.1.48-2.88,1.93-2.32,4.34Z"/>
    <path class="cls-4" d="m93.89,78.15c-3.05.7-5.55.88-7.5.54s-3.06-1.16-3.36-2.45c-2.55-11.11-3.5-19.67-2.84-25.69.66-6.02,2.55-9.39,5.69-10.11,1.32-.3,2.5.13,3.55,1.29-1.38,2.86-1.98,7.35-1.79,13.48.19,6.13.89,11.79,2.08,16.99.18.79.39,1.26.62,1.4.23.14.84.1,1.83-.12,4.54-1.04,8.18-3.16,10.95-6.36,2.76-3.2,3.82-6.19,3.18-8.97-.42-1.83-1.39-3.09-2.92-3.79s-3.1-.97-4.71-.82c-1.62.15-3.11.2-4.49.15-1.38-.05-2.15-.44-2.31-1.14-.12-.54-.06-.99.21-1.36.26-.37.59-.63.99-.79.4-.16.92-.33,1.57-.52l2.07-.34.31-.07c3.26-.75,5.54-2.03,6.84-3.84s1.81-4.06,1.54-6.76l-.11-.5c-.49-2.12-1.71-3.68-3.68-4.67-1.97-.99-4.74-1.08-8.33-.25-3.59.82-6.49,1.97-8.72,3.45-2.22,1.47-4.23,3.42-6.02,5.85-.74.96-1.54,1.54-2.4,1.73-.87.2-1.66.06-2.37-.41-.72-.47-1.16-1.07-1.32-1.8-.17-.73-.07-1.35.29-1.87,4.57-6.39,10.97-10.53,19.22-12.43,5.65-1.3,10.29-1.14,13.92.48,3.63,1.62,5.8,4,6.52,7.14.72,3.14-.04,6.35-2.28,9.62-1.69,2.49-4.24,4.13-7.66,4.91,2.09-.35,4.29.03,6.61,1.14s3.73,2.77,4.24,4.97c.97,4.24-.53,8.62-4.51,13.12-3.98,4.5-8.94,7.44-14.88,8.8Z"/>
  </g>
</svg>